<svg data-v-423bf9ae="" xmlns="http://www.w3.org/2000/svg" viewBox="0 0 394.2274102681901 60" class="font"><!----><!----><!----><g data-v-423bf9ae="" id="a30006fd-5464-419c-bb4f-f01549ffdb8c" fill="white" transform="matrix(5.830903811703725,0,0,5.830903811703725,-7.346937530907354,-27.1720113496512)"><path d="M2.66 10.47L6.01 10.47L6.01 9.21L2.66 9.21L2.66 6.34L6.85 6.34L6.85 5.08L1.26 5.08L1.26 14.88L6.85 14.88L6.85 13.62L2.66 13.62ZM10.29 14.88L11.70 14.88L11.70 13.66L10.02 13.66L10.02 4.66L8.67 4.66L8.67 13.94ZM18.63 13.66L14.46 13.66L14.46 11.86L18.63 11.86L18.63 8.75L17.01 7.81L14.73 7.81L13.10 8.75L13.10 13.94L14.73 14.88L18.63 14.88ZM14.46 9.03L17.28 9.03L17.28 10.64L14.46 10.64ZM22.23 9.10L26.12 9.10L26.12 7.88L22.50 7.88L20.87 8.82L20.87 13.94L22.50 14.88L26.12 14.88L26.12 13.66L22.23 13.66ZM27.52 9.10L28.81 9.10L28.81 13.94L30.44 14.88L31.85 14.88L31.85 13.66L30.17 13.66L30.17 9.10L31.85 9.10L31.85 7.88L30.17 7.88L30.17 5.92L28.81 6.71L28.81 7.88L27.52 7.88ZM35.17 7.88L33.81 7.88L33.81 14.88L35.17 14.88ZM33.74 6.16L35.24 6.16L35.24 4.66L33.74 4.66ZM43.08 12.43L43.08 13.69L38.95 13.69L38.95 6.27L43.08 6.27L43.08 7.53L44.48 7.53L44.48 5.95L42.85 5.01L39.17 5.01L37.55 5.95L37.55 14.01L39.17 14.95L42.85 14.95L44.48 14.01L44.48 12.43ZM50.62 9.10L50.62 7.88L49.07 7.88L48.08 8.46L47.74 7.88L46.72 7.88L46.72 14.88L48.08 14.88L48.08 9.10ZM53.24 12.01L56.06 12.01L56.06 13.73L53.24 13.73ZM53.51 14.95L55.06 14.95L56.06 14.38L57.05 14.95L57.41 14.95L57.41 8.82L55.79 7.88L52.58 7.88L52.58 9.10L56.06 9.10L56.06 10.79L53.51 10.79L51.88 11.73L51.88 14.01ZM59.09 9.10L60.38 9.10L60.38 14.88L61.74 14.88L61.74 9.10L63.42 9.10L63.42 7.88L61.74 7.88L61.74 5.88L63.42 5.88L63.42 4.66L62.01 4.66L60.38 5.60L60.38 7.88L59.09 7.88ZM64.54 9.10L65.83 9.10L65.83 13.94L67.45 14.88L68.87 14.88L68.87 13.66L67.19 13.66L67.19 9.10L68.87 9.10L68.87 7.88L67.19 7.88L67.19 5.92L65.83 6.71L65.83 7.88L64.54 7.88Z"></path></g><!----><!----></svg>